<svg id="Capa_1" enable-background="new 0 0 512 512" height="512" viewBox="0 0 512 512" width="512" xmlns="http://www.w3.org/2000/svg"><g><path d="m336 137.291h-35v-30h35c11.028 0 20-8.972 20-20v-29.445h30v29.445c0 27.57-22.43 50-50 50z" fill="#4fc16e"/><path d="m211 474.167h-35c-27.57 0-50-22.43-50-50v-29.445h30v29.445c0 11.028 8.972 20 20 20h35z" fill="#8adb53"/><path d="m211 344.188h-72.374c-52.383 0-95-42.617-95-95v-122.754c0-33.084 26.916-60 60-60s60 26.916 60 60v97.754h47.374z" fill="#8adb53"/><path d="m373.374 445.566h-72.374v-120h47.374v-97.754c0-33.084 26.916-60 60-60s60 26.916 60 60v122.754c0 52.383-42.617 95-95 95z" fill="#4fc16e"/><path d="m316 512h-120v-452c0-33.084 26.916-60 60-60s60 26.916 60 60z" fill="#4fc16e"/><path d="m316 60c0-33.084-26.916-60-60-60v512h60z" fill="#369151"/></g></svg>