<svg id="Capa_1" enable-background="new 0 0 512 512" height="512" viewBox="0 0 512 512" width="512" xmlns="http://www.w3.org/2000/svg"><g><g><g><path d="m222.867 396.817-8.178-32.71c-.07-.282-.12-.569-.149-.858l-7.7-76.996c-.307-3.067-2.888-5.403-5.97-5.403h-7.429c-2.273 0-4.35-1.284-5.367-3.317l-14.275-28.55c-.417-.833-.633-1.752-.633-2.683v-158.25c0-3.314-2.686-6-6-6h-37.7c-3.314 0-6 2.686-6 6v23.425c0 2.273-1.284 4.35-3.317 5.367l-26.5 13.25c-2.033 1.016-3.317 3.094-3.317 5.367v73.125c0 3.314-2.686 6-6 6h-5.378c-2.979 0-5.507 2.186-5.937 5.134l-13.684 93.835c-.042.287-.063.576-.063.866v87.398h163.596v-5z" fill="#c86d36"/></g><g><path d="m214.689 364.107c-.07-.282-.12-.569-.149-.858l-7.699-76.996c-.307-3.067-2.888-5.403-5.97-5.403h-7.429c-2.273 0-4.35-1.284-5.367-3.317l-14.275-28.55c-.417-.833-.633-1.752-.633-2.683v-158.25c0-3.314-2.686-6-6-6h-23.039c3.314 0 6 2.686 6 6v158.25c0 .932.217 1.85.634 2.683l14.275 28.55c1.016 2.033 3.094 3.317 5.366 3.317h7.429c3.082 0 5.663 2.336 5.97 5.403l7.7 76.996c.029.289.079.576.149.858l8.177 32.71v5h23.039v-5z" fill="#ac5e2e"/></g><g><g><path d="m189.733 396.817v5h-149.1v-5l17.584-78.15c.616-2.738 3.047-4.683 5.854-4.683h104.177c2.86 0 5.323 2.019 5.883 4.823z" fill="#d77f4a"/></g><g><path d="m174.131 318.807c-.561-2.805-3.023-4.823-5.883-4.823h-23.067c2.86 0 5.322 2.019 5.883 4.823l15.602 78.01v5h23.067v-5z" fill="#cc6a46"/></g></g><g><path d="m289.133 396.817 8.177-32.71c.07-.282.12-.569.149-.858l7.7-76.996c.307-3.067 2.888-5.403 5.97-5.403h7.429c2.273 0 4.35-1.284 5.366-3.317l14.275-28.55c.417-.833.633-1.752.633-2.683v-125.117c0-3.314 2.686-6 6-6h37.7c3.314 0 6 2.686 6 6v23.425c0 2.273 1.284 4.35 3.317 5.367l26.5 13.25c2.033 1.016 3.317 3.094 3.317 5.367v39.992c0 3.314 2.686 6 6 6h5.378c2.979 0 5.507 2.186 5.937 5.134l13.684 93.835c.042.287.063.576.063.866v87.398h-163.595z" fill="#c86d36"/></g><g><path d="m452.667 313.553-13.685-93.835c-.43-2.948-2.958-5.134-5.937-5.134h-5.378c-3.314 0-6-2.686-6-6v-39.992c0-2.273-1.284-4.35-3.317-5.367l-26.5-13.25c-2.033-1.016-3.317-3.094-3.317-5.367v-23.425c0-3.314-2.686-6-6-6h-22.994c3.314 0 6 2.686 6 6v23.425c0 2.273 1.284 4.35 3.317 5.367l26.5 13.25c2.033 1.016 3.317 3.094 3.317 5.367v39.992c0 3.314 2.686 6 6 6h5.378c2.979 0 5.507 2.186 5.937 5.134l13.684 93.835c.042.287.063.576.063.866v87.398h22.994v-87.398c0-.29-.021-.58-.062-.866z" fill="#ac5e2e"/></g><g><g><path d="m322.267 396.817v5h149.1v-5l-17.584-78.15c-.616-2.738-3.047-4.683-5.854-4.683h-104.177c-2.86 0-5.323 2.019-5.883 4.823z" fill="#d77f4a"/></g><g><path d="m453.783 318.666c-.616-2.738-3.047-4.683-5.854-4.683h-23c2.806 0 5.237 1.945 5.854 4.683l17.584 78.15v5h23v-5z" fill="#cc6a46"/></g></g><g><g><path d="m32.067 396.817h447.867c4.418 0 8 3.582 8 8v25.133h-463.867v-25.133c0-4.419 3.581-8 8-8z" fill="#c86d36"/></g><g><path d="m479.933 396.817h-23.036c4.418 0 8 3.582 8 8v25.133h23.036v-25.133c0-4.419-3.581-8-8-8z" fill="#ac5e2e"/></g></g><g><path d="m289.133 396.817h-66.266l-16.567 33.133h99.4z" fill="#d4d4d4"/></g><g><path d="m289.133 396.817h-66.266l-16.567 33.133h99.4z" fill="#e5e1e5"/></g><g><path d="m289.133 396.817h-23l16.567 33.133h23z" fill="#d7d0d6"/></g></g><path d="m504.5 422.45h-9.066v-17.634c0-8.547-6.953-15.5-15.5-15.5h-2.566l-17.258-76.699-14.455-99.116c-.538-3.686-3.698-6.418-7.422-6.418h-9.066v-42.2c0-2.841-1.605-5.438-4.145-6.708l-28.988-14.494v-28.497c0-4.143-3.357-7.5-7.5-7.5h-49.7c-4.143 0-7.5 3.357-7.5 7.5v130.763l-13.702 27.403h-11.932c-3.853 0-7.079 2.92-7.463 6.754l-8.229 82.289-6.732 26.924h-54.554l-6.732-26.924-8.229-82.289c-.384-3.834-3.609-6.754-7.463-6.754h-11.931l-13.702-27.403v-163.897c0-4.143-3.357-7.5-7.5-7.5h-49.7c-4.143 0-7.5 3.357-7.5 7.5v28.498l-28.988 14.494c-2.54 1.271-4.146 3.867-4.146 6.708v75.333h-9.066c-3.724 0-6.884 2.732-7.422 6.418l-14.453 99.116-17.257 76.699h-2.566c-8.547 0-15.5 6.953-15.5 15.5v17.634h-9.067c-4.143 0-7.5 3.357-7.5 7.5s3.357 7.5 7.5 7.5h104.1c4.143 0 7.5-3.357 7.5-7.5s-3.357-7.5-7.5-7.5h-80.034v-17.634c0-.275.225-.5.5-.5h8.566 149.101 20.998l-9.067 18.134h-60.596c-4.143 0-7.5 3.357-7.5 7.5s3.357 7.5 7.5 7.5h65.232 99.4 198.8c4.143 0 7.5-3.357 7.5-7.5s-3.357-7.5-7.5-7.5zm-24.066-17.634v17.634h-170.099l-9.067-18.134h20.998 149.101 8.566c.276 0 .501.225.501.5zm-177.162-33.632h16.472l-3.626 18.133h-17.379zm28.143 18.132 4.817-24.086c.005-.026.01-.052.015-.078l8.734-43.669h101.748l4.08 18.134h-37.427c-2.841 0-5.438 1.605-6.708 4.146l-8.283 16.566c-1.853 3.705-.351 8.21 3.353 10.063 1.077.539 2.222.794 3.349.794 2.751 0 5.4-1.52 6.714-4.147l6.211-12.421h36.166l7.807 34.699h-130.576zm-9.188-100.966c.011 0 .023.002.034.002.01 0 .019-.002.028-.002h33.111c4.143 0 7.5-3.357 7.5-7.5s-3.357-7.5-7.5-7.5h-20.999l9.066-18.133h61.633c4.143 0 7.5-3.357 7.5-7.5s-3.357-7.5-7.5-7.5h-58.767v-117.533h34.7v18.133h-9.066c-4.143 0-7.5 3.357-7.5 7.5s3.357 7.5 7.5 7.5h14.796l27.404 13.702v37.564h-25.634c-4.143 0-7.5 3.357-7.5 7.5s3.357 7.5 7.5 7.5h43.215l12.308 84.4h-105.223c-3.575 0-6.653 2.523-7.355 6.029l-8.734 43.671h-17.04l6.783-67.834h9.74zm-126.345 100.966-3.626-18.133h16.472l4.534 18.133zm-115.63-167.233h43.215c4.143 0 7.5-3.357 7.5-7.5s-3.357-7.5-7.5-7.5h-25.634v-70.697l27.404-13.702h14.796c4.143 0 7.5-3.357 7.5-7.5s-3.357-7.5-7.5-7.5h-9.066v-18.134h34.7v150.667h-58.767c-4.143 0-7.5 3.357-7.5 7.5s3.357 7.5 7.5 7.5h61.631l9.066 18.133h-20.997c-4.143 0-7.5 3.357-7.5 7.5s3.357 7.5 7.5 7.5h33.111c.01 0 .019.002.028.002.011 0 .023-.002.034-.002h9.739l6.783 67.834h-17.04l-8.734-43.671c-.701-3.506-3.779-6.029-7.354-6.029h-105.223zm-30.244 167.233 7.807-34.699h36.166l6.211 12.421c1.313 2.628 3.963 4.147 6.714 4.147 1.127 0 2.271-.256 3.349-.794 3.704-1.853 5.206-6.357 3.354-10.063l-8.283-16.566c-1.271-2.54-3.867-4.146-6.708-4.146h-37.428l4.08-18.134h101.748l8.734 43.669c.005.026.01.052.016.078l4.817 24.086h-130.577zm168.428 33.134 9.066-18.134h56.996l9.067 18.134z"/></g></svg>