<svg height="488pt" viewBox="0 -1 488.50263 488" width="488pt" xmlns="http://www.w3.org/2000/svg"><path d="m415.476562 260.25h-342.214843c-4.46875 0-8.089844-3.621094-8.089844-8.089844v-239.820312c0-4.464844 3.621094-8.089844 8.089844-8.089844h342.21875c4.46875 0 8.089843 3.625 8.089843 8.089844v239.820312c0 4.46875-3.621093 8.089844-8.09375 8.089844zm0 0" fill="#f9a7a7"/><path d="m85.304688 235.886719v-207.273438c0-2.234375 1.8125-4.046875 4.046874-4.046875h310.039063c2.234375 0 4.046875 1.8125 4.046875 4.046875v207.273438c0 2.234375-1.8125 4.046875-4.046875 4.046875h-310.042969c-2.234375 0-4.042968-1.8125-4.042968-4.046875zm0 0" fill="#f9cfcf"/><path d="m415.476562 264.25h-342.214843c-6.667969 0-12.089844-5.425781-12.089844-12.089844v-239.820312c0-6.664063 5.421875-12.089844 12.089844-12.089844h342.214843c6.667969 0 12.089844 5.425781 12.089844 12.089844v239.820312c.003906 6.664063-5.421875 12.089844-12.089844 12.089844zm-342.214843-256c-2.257813 0-4.089844 1.832031-4.089844 4.089844v239.816406c0 2.257812 1.832031 4.089844 4.089844 4.089844h342.214843c2.257813 0 4.089844-1.832032 4.089844-4.089844v-239.816406c0-2.253906-1.832031-4.089844-4.089844-4.089844zm0 0" fill="#3762cc"/><path d="m399.386719 243.933594h-310.039063c-4.4375 0-8.042968-3.609375-8.042968-8.042969v-207.277344c0-4.4375 3.609374-8.042969 8.042968-8.042969h310.039063c4.4375 0 8.046875 3.609376 8.046875 8.042969v207.273438c0 4.4375-3.609375 8.046875-8.046875 8.046875zm-310.039063-215.367188-.042968 207.320313c0 .023437.019531.042969.042968.042969h310.039063l.046875-207.320313zm0 0" fill="#3762cc"/><path d="m247.648438 191.210938h-7.296876c-11.082031 0-20.0625-8.984376-20.0625-20.066407v-32.832031c0-11.082031 8.980469-20.0625 20.0625-20.0625h7.296876c11.082031 0 20.0625 8.980469 20.0625 20.0625v32.832031c0 11.082031-8.980469 20.066407-20.0625 20.066407zm0 0" fill="#e0ebfc"/><path d="m240.351562 152.90625h-20.0625v-7.296875h20.0625c2.015626 0 3.648438 1.632813 3.648438 3.648437 0 2.015626-1.632812 3.648438-3.648438 3.648438zm0 0" fill="#a4c9ff"/><path d="m240.351562 163.847656c2.015626 0 3.648438-1.632812 3.648438-3.644531 0-2.015625-1.632812-3.648437-3.648438-3.648437h-20.0625v5.46875c0 .617187.046876 1.222656.089844 1.824218zm0 0" fill="#a4c9ff"/><path d="m244 138.3125c0-2.011719-1.632812-3.648438-3.648438-3.648438h-19.714843c-.21875 1.183594-.347657 2.402344-.347657 3.648438v3.648438h20.0625c2.015626 0 3.648438-1.632813 3.648438-3.648438zm0 0" fill="#a4c9ff"/><path d="m238.214844 200.976562h14v34.957032h-14zm0 0" fill="#e0ebfc"/><path d="m469.488281 367.933594h-450.472656l-15.015625 51.042968h480.503906zm0 0" fill="#4671c6"/><path d="m282.011719 407.453125h-75.289063c-2.128906 0-3.855468-1.726563-3.855468-3.855469v-35.664062h83v35.664062c.003906 2.128906-1.726563 3.855469-3.855469 3.855469zm0 0" fill="#b9befc"/><path d="m469.445312 367.9375h-450.398437v-29.78125c0-2.207031 1.789063-4 4-4h442.398437c2.207032 0 4 1.792969 4 4zm0 0" fill="#b9befc"/><path d="m480.503906 447.976562h-472.5c-2.210937 0-4.003906-1.792968-4.003906-4.003906v-24.996094h480.503906v24.996094c0 2.210938-1.792968 4.003906-4 4.003906zm0 0" fill="#b9befc"/><path d="m139.582031 355.933594h-97.070312c-1.914063 0-3.464844-1.550782-3.464844-3.464844v-5.070312c0-1.914063 1.550781-3.464844 3.464844-3.464844h97.070312c1.914063 0 3.464844 1.550781 3.464844 3.464844v5.070312c0 1.914062-1.554687 3.464844-3.464844 3.464844zm0 0" fill="#ffea92"/><path d="m445.976562 355.933594h-97.070312c-1.914062 0-3.464844-1.550782-3.464844-3.464844v-5.070312c0-1.914063 1.550782-3.464844 3.464844-3.464844h97.070312c1.914063 0 3.464844 1.550781 3.464844 3.464844v5.070312c.003906 1.914062-1.550781 3.464844-3.464844 3.464844zm0 0" fill="#ffea92"/><g fill="#6bdddd"><path d="m36.699219 380.453125h38.367187c2.210938 0 4 1.664063 4 3.714844v18.570312c0 2.054688-1.789062 3.714844-4 3.714844h-46.667968c-2.851563 0-4.785157-2.691406-3.691407-5.136719l8.296875-18.574218c.621094-1.386719 2.078125-2.289063 3.695313-2.289063zm0 0"/><path d="m185.195312 406.453125h-32.652343c-2.027344 0-3.675781-1.644531-3.675781-3.675781v-18.648438c0-2.03125 1.648437-3.675781 3.675781-3.675781h32.652343c2.027344 0 3.675782 1.644531 3.675782 3.675781v18.648438c0 2.03125-1.648438 3.675781-3.675782 3.675781zm0 0"/><path d="m129.195312 406.453125h-32.652343c-2.027344 0-3.675781-1.644531-3.675781-3.675781v-18.648438c0-2.03125 1.648437-3.675781 3.675781-3.675781h32.652343c2.027344 0 3.675782 1.644531 3.675782 3.675781v18.648438c0 2.03125-1.648438 3.675781-3.675782 3.675781zm0 0"/><path d="m452.039062 380.453125h-38.367187c-2.210937 0-4 1.664063-4 3.714844v18.570312c0 2.054688 1.789063 3.714844 4 3.714844h46.667969c2.851562 0 4.789062-2.691406 3.695312-5.136719l-8.300781-18.574218c-.617187-1.386719-2.078125-2.289063-3.695313-2.289063zm0 0"/><path d="m359.542969 406.453125h32.652343c2.027344 0 3.675782-1.644531 3.675782-3.675781v-18.648438c0-2.03125-1.648438-3.675781-3.675782-3.675781h-32.652343c-2.027344 0-3.675781 1.644531-3.675781 3.675781v18.648438c.003906 2.03125 1.648437 3.675781 3.675781 3.675781zm0 0"/></g><path d="m484.503906 422.976562h-480.5c-1.261718 0-2.449218-.59375-3.207031-1.605468-.7539062-1.011719-.988281-2.316406-.632813-3.527344l15.011719-51.039062c.5-1.703126 2.0625-2.875 3.839844-2.875h450.472656c1.777344 0 3.335938 1.167968 3.839844 2.875l15.011719 51.039062c.355468 1.210938.121094 2.515625-.632813 3.527344-.757812 1.007812-1.941406 1.605468-3.203125 1.605468zm-475.15625-8h469.808594l-12.660156-43.042968h-444.488282zm0 0" fill="#3762cc"/><path d="m469.445312 371.9375h-450.402343c-2.207031 0-4-1.792969-4-4v-29.78125c0-4.410156 3.589843-8 8-8h442.398437c4.414063 0 8 3.589844 8 8v29.78125c.003906 2.210938-1.789062 4-3.996094 4zm-446.402343-8h442.398437v-25.78125h-442.398437zm0 0" fill="#3762cc"/><path d="m480.503906 451.976562h-472.5c-4.414062 0-8.003906-3.589843-8.003906-8.003906v-24.996094c0-2.210937 1.792969-4 4-4h480.503906c2.207032 0 4 1.789063 4 4v24.996094c0 4.414063-3.589844 8.003906-8 8.003906zm-472.5-29v20.996094l472.503906.003906-.003906-21zm0 0" fill="#3762cc"/><path d="m282.011719 411.453125h-75.289063c-4.332031 0-7.855468-3.523437-7.855468-7.855469v-35.667968c0-2.207032 1.792968-4 4-4h83c2.207031 0 4 1.792968 4 4v35.667968c.003906 4.332032-3.523438 7.855469-7.855469 7.855469zm-75.140625-8h75v-31.523437h-75zm0 0" fill="#3762cc"/><path d="m114.722656 334.15625h-86.324218c-5.183594 0-9.382813-4.199219-9.382813-9.382812v-150.132813c0-5.179687 4.199219-9.382813 9.382813-9.382813h86.324218c5.183594 0 9.386719 4.203126 9.386719 9.382813v150.132813c-.003906 5.183593-4.203125 9.382812-9.386719 9.382812zm0 0" fill="#4671c6"/><path d="m104.402344 207.839844c0 18.140625-14.703125 32.84375-32.84375 32.84375-18.136719 0-32.839844-14.703125-32.839844-32.84375 0-18.136719 14.703125-32.839844 32.839844-32.839844 18.140625 0 32.84375 14.703125 32.84375 32.839844zm0 0" fill="#a4c9ff"/><path d="m94.425781 207.839844c0 12.628906-10.238281 22.867187-22.867187 22.867187-12.625 0-22.863282-10.238281-22.863282-22.867187 0-12.625 10.238282-22.863282 22.863282-22.863282 12.628906 0 22.867187 10.238282 22.867187 22.863282zm0 0" fill="#f9a7a7"/><path d="m83.429688 207.839844c0 6.558594-5.3125 11.871094-11.871094 11.871094-6.554688 0-11.867188-5.3125-11.867188-11.871094 0-6.554688 5.3125-11.867188 11.867188-11.867188 6.558594 0 11.871094 5.3125 11.871094 11.867188zm0 0" fill="#f9cfcf"/><path d="m109.09375 287.242188c0 20.730468-16.804688 37.53125-37.535156 37.53125-20.726563 0-37.53125-16.800782-37.53125-37.53125 0-20.730469 16.804687-37.535157 37.53125-37.535157 20.730468 0 37.535156 16.804688 37.535156 37.535157zm0 0" fill="#a4c9ff"/><path d="m98.65625 287.242188c0 14.964843-12.128906 27.097656-27.097656 27.097656-14.964844 0-27.097656-12.132813-27.097656-27.097656 0-14.964844 12.132812-27.097657 27.097656-27.097657 14.96875 0 27.097656 12.132813 27.097656 27.097657zm0 0" fill="#f9a7a7"/><path d="m86.574219 287.242188c0 8.292968-6.722657 15.011718-15.015625 15.011718-8.289063 0-15.011719-6.71875-15.011719-15.011718 0-8.292969 6.722656-15.015626 15.011719-15.015626 8.292968 0 15.015625 6.722657 15.015625 15.015626zm0 0" fill="#f9cfcf"/><path d="m114.722656 338.15625h-86.324218c-7.378907 0-13.382813-6.003906-13.382813-13.382812v-150.132813c0-7.378906 6.003906-13.382813 13.382813-13.382813h86.324218c7.378906 0 13.382813 6.003907 13.382813 13.382813v150.132813c0 7.378906-6.003907 13.382812-13.382813 13.382812zm-86.324218-168.898438c-2.96875 0-5.382813 2.417969-5.382813 5.382813v150.132813c0 2.96875 2.414063 5.382812 5.382813 5.382812h86.324218c2.96875 0 5.382813-2.417969 5.382813-5.382812v-150.132813c0-2.96875-2.414063-5.382813-5.382813-5.382813zm0 0" fill="#3762cc"/><path d="m71.558594 244.683594c-20.3125 0-36.839844-16.527344-36.839844-36.84375 0-20.3125 16.527344-36.839844 36.839844-36.839844 20.316406 0 36.84375 16.527344 36.84375 36.839844 0 20.316406-16.527344 36.84375-36.84375 36.84375zm0-65.683594c-15.902344 0-28.839844 12.9375-28.839844 28.839844s12.9375 28.839844 28.839844 28.839844c15.90625 0 28.84375-12.9375 28.84375-28.839844 0-15.90625-12.9375-28.839844-28.84375-28.839844zm0 0" fill="#3762cc"/><path d="m71.558594 328.773438c-22.902344 0-41.53125-18.628907-41.53125-41.53125 0-22.902344 18.628906-41.535157 41.53125-41.535157s41.535156 18.632813 41.535156 41.535157c0 22.902343-18.632812 41.53125-41.535156 41.53125zm0-75.066407c-18.488282 0-33.53125 15.042969-33.53125 33.535157 0 18.492187 15.039062 33.53125 33.53125 33.53125 18.492187 0 33.535156-15.039063 33.535156-33.53125 0-18.492188-15.042969-33.535157-33.535156-33.535157zm0 0" fill="#3762cc"/><path d="m460.027344 334.15625h-86.324219c-5.183594 0-9.386719-4.199219-9.386719-9.382812v-150.132813c0-5.179687 4.203125-9.382813 9.386719-9.382813h86.324219c5.183594 0 9.382812 4.203126 9.382812 9.382813v150.132813c0 5.183593-4.199218 9.382812-9.382812 9.382812zm0 0" fill="#4671c6"/><path d="m449.707031 207.839844c0 18.140625-14.703125 32.84375-32.839843 32.84375-18.140626 0-32.84375-14.703125-32.84375-32.84375 0-18.136719 14.703124-32.839844 32.84375-32.839844 18.136718 0 32.839843 14.703125 32.839843 32.839844zm0 0" fill="#a4c9ff"/><path d="m439.730469 207.839844c0 12.628906-10.238281 22.867187-22.863281 22.867187-12.628907 0-22.863282-10.238281-22.863282-22.867187 0-12.625 10.234375-22.863282 22.863282-22.863282 12.625 0 22.863281 10.238282 22.863281 22.863282zm0 0" fill="#f9a7a7"/><path d="m428.734375 207.839844c0 6.558594-5.3125 11.871094-11.867187 11.871094-6.558594 0-11.871094-5.3125-11.871094-11.871094 0-6.554688 5.3125-11.867188 11.871094-11.867188 6.554687 0 11.867187 5.3125 11.867187 11.867188zm0 0" fill="#f9cfcf"/><path d="m454.398438 287.242188c0 20.730468-16.804688 37.53125-37.53125 37.53125-20.730469 0-37.535157-16.800782-37.535157-37.53125 0-20.730469 16.804688-37.535157 37.535157-37.535157 20.726562 0 37.53125 16.804688 37.53125 37.535157zm0 0" fill="#a4c9ff"/><path d="m443.964844 287.242188c0 14.964843-12.132813 27.097656-27.097656 27.097656-14.96875 0-27.097657-12.132813-27.097657-27.097656 0-14.964844 12.128907-27.097657 27.097657-27.097657 14.964843 0 27.097656 12.132813 27.097656 27.097657zm0 0" fill="#f9a7a7"/><path d="m431.878906 287.242188c0 8.292968-6.722656 15.011718-15.011718 15.011718-8.292969 0-15.015626-6.71875-15.015626-15.011718 0-8.292969 6.722657-15.015626 15.015626-15.015626 8.289062 0 15.011718 6.722657 15.011718 15.015626zm0 0" fill="#f9cfcf"/><path d="m460.027344 338.15625h-86.324219c-7.378906 0-13.382813-6.003906-13.382813-13.382812v-150.132813c0-7.378906 6.003907-13.382813 13.382813-13.382813h86.324219c7.378906 0 13.382812 6.003907 13.382812 13.382813v150.132813c0 7.378906-6.003906 13.382812-13.382812 13.382812zm-86.324219-168.898438c-2.96875 0-5.382813 2.417969-5.382813 5.382813v150.132813c0 2.96875 2.414063 5.382812 5.382813 5.382812h86.324219c2.96875 0 5.382812-2.417969 5.382812-5.382812v-150.132813c0-2.96875-2.414062-5.382813-5.382812-5.382813zm0 0" fill="#3762cc"/><path d="m416.867188 244.683594c-20.316407 0-36.84375-16.527344-36.84375-36.84375 0-20.3125 16.527343-36.839844 36.84375-36.839844 20.3125 0 36.839843 16.527344 36.839843 36.839844 0 20.316406-16.527343 36.84375-36.839843 36.84375zm0-65.683594c-15.90625 0-28.84375 12.9375-28.84375 28.839844s12.9375 28.839844 28.84375 28.839844c15.902343 0 28.839843-12.9375 28.839843-28.839844 0-15.90625-12.9375-28.839844-28.839843-28.839844zm0 0" fill="#3762cc"/><path d="m416.867188 328.773438c-22.902344 0-41.535157-18.628907-41.535157-41.53125 0-22.902344 18.632813-41.535157 41.535157-41.535157 22.902343 0 41.53125 18.632813 41.53125 41.535157 0 22.902343-18.632813 41.53125-41.53125 41.53125zm0-75.066407c-18.492188 0-33.535157 15.042969-33.535157 33.535157 0 18.492187 15.042969 33.53125 33.535157 33.53125 18.492187 0 33.53125-15.039063 33.53125-33.53125 0-18.492188-15.042969-33.535157-33.53125-33.535157zm0 0" fill="#3762cc"/><path d="m324.300781 367.933594h-160c-4.417969 0-8-3.582032-8-8v-116c0-4.417969 3.582031-8 8-8h160c4.417969 0 8 3.582031 8 8v116c0 4.417968-3.582031 8-8 8zm0 0" fill="#a4c9ff"/><path d="m170.199219 351.332031v-98.796875c0-2.101562 1.699219-3.800781 3.796875-3.800781h140.601562c2.097656 0 3.800782 1.699219 3.800782 3.800781v98.796875c0 2.097657-1.703126 3.800781-3.800782 3.800781h-140.601562c-2.097656 0-3.796875-1.703124-3.796875-3.800781zm0 0" fill="#4671c6"/><path d="m260.085938 391.933594h-32c-2.210938 0-4-1.789063-4-4v-20h40v20c0 2.207031-1.789063 4-4 4zm0 0" fill="#a4c9ff"/><path d="m324.296875 371.933594h-160c-6.617187 0-12-5.382813-12-12v-116c0-6.617188 5.382813-12 12-12h160c6.617187 0 12 5.382812 12 12v116c0 6.617187-5.382813 12-12 12zm-160-132c-2.203125 0-4 1.792968-4 4v116c0 2.207031 1.796875 4 4 4h160c2.207031 0 4-1.792969 4-4v-116c0-2.207032-1.792969-4-4-4zm0 0" fill="#3762cc"/><path d="m260.085938 395.933594h-32c-4.410157 0-8-3.589844-8-8v-20c0-2.207032 1.792968-4 4-4h40c2.207031 0 4 1.792968 4 4v20c0 4.410156-3.589844 8-8 8zm-32-24v16h32.003906l-.003906-16zm0 0" fill="#3762cc"/><path d="m303.542969 406.453125h32.652343c2.027344 0 3.675782-1.644531 3.675782-3.675781v-18.648438c0-2.03125-1.648438-3.675781-3.675782-3.675781h-32.652343c-2.027344 0-3.675781 1.644531-3.675781 3.675781v18.648438c.003906 2.03125 1.648437 3.675781 3.675781 3.675781zm0 0" fill="#6bdddd"/><path d="m240.351562 174.792969c2.015626 0 3.648438-1.632813 3.648438-3.648438 0-2.011719-1.632812-3.648437-3.648438-3.648437h-20.0625v3.648437c0 1.25.128907 2.464844.347657 3.648438zm0 0" fill="#a4c9ff"/><path d="m247.648438 191.210938h-7.296876c-3.53125 0-6.84375-.921876-9.726562-2.523438v6.421875c0 3.238281 2.625 5.867187 5.863281 5.867187h17.457031c3.238282 0 5.863282-2.628906 5.863282-5.867187v-7.398437h-.84375c-3.222656 2.203124-7.117188 3.5-11.316406 3.5zm0 0" fill="#a4c9ff"/><path d="m274.570312 458.726562c-.78125-19.335937-8.972656-37.824218-23.199218-52.140624-16.882813-16.984376-40.722656-26.652344-65.710938-26.652344h-19.320312c-24.988282 0-48.828125 9.667968-65.710938 26.652344-14.226562 14.316406-22.417968 32.804687-23.199218 52.140624h-.078126v24h197.296876v-24zm0 0" fill="#f9a7a7"/><path d="m274.648438 486.726562h-197.296876c-2.207031 0-4-1.792968-4-4v-24c0-.332031.042969-.65625.117188-.964843 1.015625-20.066407 9.636719-39.210938 24.324219-53.992188 17.582031-17.691406 42.566406-27.835937 68.546875-27.835937h19.320312c25.980469 0 50.964844 10.148437 68.546875 27.835937 14.6875 14.78125 23.308594 33.921875 24.324219 53.992188.074219.308593.117188.632812.117188.964843v24c0 2.207032-1.789063 4-4 4zm-193.296876-8h189.296876v-19.226562c-.039063-.199219-.066407-.40625-.074219-.613281-.746094-18.351563-8.570313-35.925781-22.042969-49.480469-16.089844-16.1875-39.003906-25.472656-62.875-25.472656h-19.316406c-23.867188 0-46.785156 9.285156-62.875 25.472656-13.46875 13.554688-21.296875 31.128906-22.039063 49.480469-.011719.210937-.035156.421875-.074219.621093zm0 0" fill="#3762cc"/></svg>